HIERARCHY
ROOT newVegas:Hips
{
	OFFSET 0.000000 96.479958 0.000000
	CHANNELS 6 Xposition Yposition Zposition Xrotation Yrotation Zrotation
	JOINT newVegas:Pelvis
	{
		OFFSET 0.000000 0.000000 0.000000
		CHANNELS 3 Xrotation Yrotation Zrotation
		JOINT newVegas:LeftUpLeg
		{
			OFFSET 18.735201 -5.666702 -4.541200
			CHANNELS 3 Xrotation Yrotation Zrotation
			JOINT newVegas:LeftLeg
			{
				OFFSET -0.021200 -31.938179 0.493100
				CHANNELS 3 Xrotation Yrotation Zrotation
				JOINT newVegas:LeftFoot
				{
					OFFSET 0.021200 -31.938179 -4.336299
					CHANNELS 3 Xrotation Yrotation Zrotation
					JOINT newVegas:LeftToeBase
					{
						OFFSET 0.943001 -26.722000 15.023500
						CHANNELS 3 Xrotation Yrotation Zrotation
						End Site
						{
							OFFSET 0.000000 30.670183 0.000000
						}
					}
				}
				JOINT newVegas:Left_PantLeg
				{
					OFFSET 0.663870 -9.044666 -1.108900
					CHANNELS 3 Xrotation Yrotation Zrotation
					End Site
					{
						OFFSET 1.415995 20.635357 0.000000
					}
				}
			}
		}
		JOINT newVegas:RightUpLeg
		{
			OFFSET -18.735201 -5.666702 -4.541200
			CHANNELS 3 Xrotation Yrotation Zrotation
			JOINT newVegas:RightLeg
			{
				OFFSET 0.018946 -31.938133 0.493100
				CHANNELS 3 Xrotation Yrotation Zrotation
				JOINT newVegas:RightFoot
				{
					OFFSET -0.018946 -31.938126 -4.336299
					CHANNELS 3 Xrotation Yrotation Zrotation
					JOINT newVegas:RightToeBase
					{
						OFFSET -0.943001 -26.722004 15.023500
						CHANNELS 3 Xrotation Yrotation Zrotation
						End Site
						{
							OFFSET 0.000000 30.670187 0.000000
						}
					}
				}
				JOINT newVegas:Right_PantLeg
				{
					OFFSET -0.661674 -9.044716 -1.108900
					CHANNELS 3 Xrotation Yrotation Zrotation
					End Site
					{
						OFFSET -1.415958 20.635269 0.000000
					}
				}
			}
		}
	}
	JOINT newVegas:Spine
	{
		OFFSET 0.000000 10.199997 -0.299500
		CHANNELS 3 Xrotation Yrotation Zrotation
		JOINT newVegas:Spine1
		{
			OFFSET 0.000000 11.900002 -1.516600
			CHANNELS 3 Xrotation Yrotation Zrotation
			JOINT newVegas:Spine2
			{
				OFFSET 0.000000 13.600006 -2.842500
				CHANNELS 3 Xrotation Yrotation Zrotation
				JOINT newVegas:Neck
				{
					OFFSET 0.000000 9.624100 -2.890100
					CHANNELS 3 Xrotation Yrotation Zrotation
					JOINT newVegas:Head
					{
						OFFSET 0.000000 14.068802 -1.351900
						CHANNELS 3 Xrotation Yrotation Zrotation
						JOINT newVegas:Hair_Back
						{
							OFFSET 0.000000 3.231903 -17.524799
							CHANNELS 3 Xrotation Yrotation Zrotation
							End Site
							{
								OFFSET 0.000000 19.849884 0.000000
							}
						}
						JOINT newVegas:Hair_Front
						{
							OFFSET 0.000000 31.260406 4.573800
							CHANNELS 3 Xrotation Yrotation Zrotation
							JOINT newVegas:Hair_Front1
							{
								OFFSET 0.000000 2.284103 11.993300
								CHANNELS 3 Xrotation Yrotation Zrotation
								JOINT newVegas:Hair_Front2
								{
									OFFSET 0.000000 2.284103 11.993300
									CHANNELS 3 Xrotation Yrotation Zrotation
									End Site
									{
										OFFSET 0.000000 12.208862 0.000000
									}
								}
							}
						}
						JOINT newVegas:Jowel
						{
							OFFSET 0.000000 -7.458206 6.864100
							CHANNELS 3 Xrotation Yrotation Zrotation
							End Site
							{
								OFFSET 0.000000 19.849884 0.000000
							}
						}
					}
				}
				JOINT newVegas:LeftShoulder
				{
					OFFSET 15.263000 10.923401 -0.547700
					CHANNELS 3 Xrotation Yrotation Zrotation
					JOINT newVegas:LeftArm
					{
						OFFSET 25.438599 -2.830597 -13.032500
						CHANNELS 3 Xrotation Yrotation Zrotation
						JOINT newVegas:LeftForeArm
						{
							OFFSET 29.960503 0.000000 0.000000
							CHANNELS 3 Xrotation Yrotation Zrotation
							JOINT newVegas:LeftHand
							{
								OFFSET 27.849251 0.000000 0.000000
								CHANNELS 3 Xrotation Yrotation Zrotation
								JOINT newVegas:LeftHandThumb1
								{
									OFFSET 4.487587 -3.305161 6.305391
									CHANNELS 3 Xrotation Yrotation Zrotation
									JOINT newVegas:LeftHandThumb2
									{
										OFFSET 5.480453 -3.164139 3.164143
										CHANNELS 3 Xrotation Yrotation Zrotation
										JOINT newVegas:LeftHandThumb3
										{
											OFFSET 5.159721 -2.978973 2.978967
											CHANNELS 3 Xrotation Yrotation Zrotation
											End Site
											{
												OFFSET 2.494507 5.926697 1.738678
											}
										}
									}
								}
								JOINT newVegas:LeftHandIndex1
								{
									OFFSET 18.578728 -0.527832 5.208049
									CHANNELS 3 Xrotation Yrotation Zrotation
									JOINT newVegas:LeftHandIndex2
									{
										OFFSET 3.192009 0.000000 0.000000
										CHANNELS 3 Xrotation Yrotation Zrotation
										JOINT newVegas:LeftHandIndex3
										{
											OFFSET 3.835129 0.000000 0.000000
											CHANNELS 3 Xrotation Yrotation Zrotation
											End Site
											{
												OFFSET -0.034599 3.816971 0.371180
											}
										}
									}
								}
								JOINT newVegas:LeftHandMiddle1
								{
									OFFSET 18.476105 0.000000 0.000000
									CHANNELS 3 Xrotation Yrotation Zrotation
									JOINT newVegas:LeftHandMiddle2
									{
										OFFSET 3.324875 0.000000 0.000000
										CHANNELS 3 Xrotation Yrotation Zrotation
										JOINT newVegas:LeftHandMiddle3
										{
											OFFSET 4.596550 0.000000 0.000000
											CHANNELS 3 Xrotation Yrotation Zrotation
											End Site
											{
												OFFSET 0.057701 4.578827 0.399218
											}
										}
									}
								}
								JOINT newVegas:LeftHandRing1
								{
									OFFSET 17.732719 0.121887 -4.201567
									CHANNELS 3 Xrotation Yrotation Zrotation
									JOINT newVegas:LeftHandRing2
									{
										OFFSET 2.733170 0.000000 0.000000
										CHANNELS 3 Xrotation Yrotation Zrotation
										JOINT newVegas:LeftHandRing3
										{
											OFFSET 3.178268 0.000000 0.000000
											CHANNELS 3 Xrotation Yrotation Zrotation
											End Site
											{
												OFFSET 0.119102 3.170624 0.185394
											}
										}
									}
								}
								JOINT newVegas:LeftHandPinky1
								{
									OFFSET 15.989624 -0.606689 -7.535461
									CHANNELS 3 Xrotation Yrotation Zrotation
									JOINT newVegas:LeftHandPinky2
									{
										OFFSET 2.538986 0.000000 0.000000
										CHANNELS 3 Xrotation Yrotation Zrotation
										JOINT newVegas:LeftHandPinky3
										{
											OFFSET 2.593102 0.000000 0.000000
											CHANNELS 3 Xrotation Yrotation Zrotation
											End Site
											{
												OFFSET -0.150902 2.584198 0.152708
											}
										}
									}
								}
							}
							JOINT newVegas:Left_Sleeve
							{
								OFFSET 0.267448 -0.649796 0.577675
								CHANNELS 3 Xrotation Yrotation Zrotation
								End Site
								{
									OFFSET 0.000000 15.991241 0.000000
								}
							}
							JOINT newVegas:Left_CapeC
							{
								OFFSET 15.715958 -8.608795 -6.935905
								CHANNELS 3 Xrotation Yrotation Zrotation
								JOINT newVegas:Left_CapeC1
								{
									OFFSET 0.000000 -8.688499 0.000000
									CHANNELS 3 Xrotation Yrotation Zrotation
									End Site
									{
										OFFSET 0.000000 8.688499 0.000000
									}
								}
							}
						}
						JOINT newVegas:Left_CapeB
						{
							OFFSET 26.118385 -8.608795 -7.079235
							CHANNELS 3 Xrotation Yrotation Zrotation
							JOINT newVegas:Left_CapeB1
							{
								OFFSET 0.000000 -8.688499 0.000000
								CHANNELS 3 Xrotation Yrotation Zrotation
								End Site
								{
									OFFSET 0.000000 8.688499 0.000000
								}
							}
						}
						JOINT newVegas:Left_CapeA
						{
							OFFSET 5.115639 -8.608795 -10.395809
							CHANNELS 3 Xrotation Yrotation Zrotation
							JOINT newVegas:Left_CapeA1
							{
								OFFSET 0.000000 -8.688499 0.000000
								CHANNELS 3 Xrotation Yrotation Zrotation
								End Site
								{
									OFFSET 0.000000 8.688499 0.000000
								}
							}
						}
					}
				}
				JOINT newVegas:RightShoulder
				{
					OFFSET -15.263000 10.923401 -0.547700
					CHANNELS 3 Xrotation Yrotation Zrotation
					JOINT newVegas:RightArm
					{
						OFFSET -25.438599 -2.830597 -13.032500
						CHANNELS 3 Xrotation Yrotation Zrotation
						JOINT newVegas:RightForeArm
						{
							OFFSET -29.960503 0.000000 0.000000
							CHANNELS 3 Xrotation Yrotation Zrotation
							JOINT newVegas:RightHand
							{
								OFFSET -27.849251 0.000000 0.000000
								CHANNELS 3 Xrotation Yrotation Zrotation
								JOINT newVegas:RightHandThumb1
								{
									OFFSET -4.487587 -3.305161 6.305391
									CHANNELS 3 Xrotation Yrotation Zrotation
									JOINT newVegas:RightHandThumb2
									{
										OFFSET -5.480453 -3.164139 3.164143
										CHANNELS 3 Xrotation Yrotation Zrotation
										JOINT newVegas:RightHandThumb3
										{
											OFFSET -5.159721 -2.978973 2.978967
											CHANNELS 3 Xrotation Yrotation Zrotation
											End Site
											{
												OFFSET -2.494507 5.926697 1.738678
											}
										}
									}
								}
								JOINT newVegas:RightHandIndex1
								{
									OFFSET -18.578728 -0.527832 5.208049
									CHANNELS 3 Xrotation Yrotation Zrotation
									JOINT newVegas:RightHandIndex2
									{
										OFFSET -3.192009 0.000000 0.000000
										CHANNELS 3 Xrotation Yrotation Zrotation
										JOINT newVegas:RightHandIndex3
										{
											OFFSET -3.835129 0.000000 0.000000
											CHANNELS 3 Xrotation Yrotation Zrotation
											End Site
											{
												OFFSET 0.034599 3.816971 0.371180
											}
										}
									}
								}
								JOINT newVegas:RightHandMiddle1
								{
									OFFSET -18.476105 0.000000 0.000000
									CHANNELS 3 Xrotation Yrotation Zrotation
									JOINT newVegas:RightHandMiddle2
									{
										OFFSET -3.324875 0.000000 0.000000
										CHANNELS 3 Xrotation Yrotation Zrotation
										JOINT newVegas:RightHandMiddle3
										{
											OFFSET -4.596550 0.000000 0.000000
											CHANNELS 3 Xrotation Yrotation Zrotation
											End Site
											{
												OFFSET -0.057701 4.578827 0.399218
											}
										}
									}
								}
								JOINT newVegas:RightHandRing1
								{
									OFFSET -17.732719 0.121887 -4.201567
									CHANNELS 3 Xrotation Yrotation Zrotation
									JOINT newVegas:RightHandRing2
									{
										OFFSET -2.733170 0.000000 0.000000
										CHANNELS 3 Xrotation Yrotation Zrotation
										JOINT newVegas:RightHandRing3
										{
											OFFSET -3.178268 0.000000 0.000000
											CHANNELS 3 Xrotation Yrotation Zrotation
											End Site
											{
												OFFSET -0.119102 3.170624 0.185394
											}
										}
									}
								}
								JOINT newVegas:RightHandPinky1
								{
									OFFSET -15.989624 -0.606689 -7.535461
									CHANNELS 3 Xrotation Yrotation Zrotation
									JOINT newVegas:RightHandPinky2
									{
										OFFSET -2.538986 0.000000 0.000000
										CHANNELS 3 Xrotation Yrotation Zrotation
										JOINT newVegas:RightHandPinky3
										{
											OFFSET -2.593102 0.000000 0.000000
											CHANNELS 3 Xrotation Yrotation Zrotation
											End Site
											{
												OFFSET 0.150902 2.584198 0.152708
											}
										}
									}
								}
							}
							JOINT newVegas:Right_CapeC
							{
								OFFSET -15.715958 -8.608795 -6.935905
								CHANNELS 3 Xrotation Yrotation Zrotation
								JOINT newVegas:Right_CapeC1
								{
									OFFSET 0.000000 -8.688499 0.000000
									CHANNELS 3 Xrotation Yrotation Zrotation
									End Site
									{
										OFFSET 0.000000 8.688499 0.000000
									}
								}
							}
							JOINT newVegas:Right_Sleeve
							{
								OFFSET -0.267448 -0.649994 0.577675
								CHANNELS 3 Xrotation Yrotation Zrotation
								End Site
								{
									OFFSET 0.000000 15.991302 0.000000
								}
							}
						}
						JOINT newVegas:Right_CapeA
						{
							OFFSET -5.115540 -8.608795 -10.395824
							CHANNELS 3 Xrotation Yrotation Zrotation
							JOINT newVegas:Right_CapeA1
							{
								OFFSET 0.000000 -8.688499 0.000000
								CHANNELS 3 Xrotation Yrotation Zrotation
								End Site
								{
									OFFSET 0.000000 8.688499 0.000000
								}
							}
						}
						JOINT newVegas:Right_CapeB
						{
							OFFSET -26.118187 -8.608795 -7.079266
							CHANNELS 3 Xrotation Yrotation Zrotation
							JOINT newVegas:Right_CapeB1
							{
								OFFSET 0.000000 -8.688499 0.000000
								CHANNELS 3 Xrotation Yrotation Zrotation
								End Site
								{
									OFFSET 0.000000 8.688499 0.000000
								}
							}
						}
					}
				}
				JOINT newVegas:Left_Collar
				{
					OFFSET 18.625099 8.655502 8.828100
					CHANNELS 3 Xrotation Yrotation Zrotation
					JOINT newVegas:Left_Collar1
					{
						OFFSET 14.783401 10.540405 -1.259500
						CHANNELS 3 Xrotation Yrotation Zrotation
						End Site
						{
							OFFSET 0.000000 18.199875 0.000000
						}
					}
				}
				JOINT newVegas:Collar_Back
				{
					OFFSET 0.000000 15.630707 -20.132601
					CHANNELS 3 Xrotation Yrotation Zrotation
					End Site
					{
						OFFSET 0.000000 22.523010 0.000000
					}
				}
				JOINT newVegas:Left_Peck
				{
					OFFSET 17.239599 -5.132599 25.482599
					CHANNELS 3 Xrotation Yrotation Zrotation
					End Site
					{
						OFFSET 0.000000 22.523010 0.000000
					}
				}
				JOINT newVegas:Right_Peck
				{
					OFFSET -17.239599 -5.132202 25.482599
					CHANNELS 3 Xrotation Yrotation Zrotation
					End Site
					{
						OFFSET 0.000000 22.523010 0.000000
					}
				}
				JOINT newVegas:Right_Collar
				{
					OFFSET -18.625099 8.655792 8.828100
					CHANNELS 3 Xrotation Yrotation Zrotation
					JOINT newVegas:Right_Collar1
					{
						OFFSET -14.783401 10.539993 -1.259500
						CHANNELS 3 Xrotation Yrotation Zrotation
						End Site
						{
							OFFSET 0.000000 18.199631 0.000000
						}
					}
				}
			}
		}
		JOINT newVegas:Belly
		{
			OFFSET 0.000000 -6.540398 9.014299
			CHANNELS 3 Xrotation Yrotation Zrotation
			End Site
			{
				OFFSET 0.000000 11.566666 0.000000
			}
		}
	}
	JOINT newVegas:ElvisFacialAnim_Joint
	{
		OFFSET 1.000000 -95.330101 -8.825800
		CHANNELS 3 Xrotation Yrotation Zrotation
		End Site
		{
			OFFSET 0.000000 35.315800 0.000000
		}
	}
}
MOTION
Frames: 4
Frame Time: 0.033333
-0.165805 16.764549 7.138512 -92.063027 -0.923601 0.482887 0.000000 -0.000000 0.000000 -67.721080 8.363358 26.867526 90.549553 -2.926195 -2.951322 36.817329 11.902947 -12.928932 0.000001 -0.000000 0.000002 -0.000001 -0.000001 -0.000000 -39.326822 5.035973 0.935199 44.176035 -0.836034 1.657341 59.834971 23.028828 14.103910 -0.000000 0.000001 0.000001 0.000000 0.000000 -0.000000 4.536732 -0.632952 -2.704469 9.097349 -0.183780 -1.338268 9.097360 -0.183780 -1.338267 0.392572 -0.416038 -1.910806 0.392566 -0.416037 -1.910805 0.000001 0.000000 0.000000 0.392574 -0.416042 -1.910811 0.392605 -0.416034 -1.910805 0.000001 -0.000000 -0.000001 0.000001 0.000000 0.000000 0.499983 -6.405503 -6.348738 42.845585 -32.245887 -19.694096 24.060501 -103.725152 27.106446 -0.245705 -0.213091 -1.164484 -10.289476 -3.449687 0.251750 2.321140 6.714505 2.170921 0.000001 0.000002 -0.000001 -0.023981 -0.779288 -8.680752 0.068002 0.764274 -16.879057 0.000000 -0.000002 -0.000000 -0.137398 0.619969 -12.274824 -0.085885 -0.354755 -10.511364 0.000000 -0.000001 -0.000000 -0.092243 7.427044 -16.709766 -0.123189 -1.634657 -13.116369 0.000000 -0.000001 -0.000001 -0.102789 13.410973 -11.521756 -0.510037 -5.458656 -22.584464 -0.000000 -0.000003 0.000001 -0.000001 0.000000 0.000000 -0.000001 0.000000 0.000000 -0.000001 0.000000 0.000001 -0.000001 -0.000006 -0.000001 -0.000001 -0.000007 -0.000001 -0.000001 -0.000006 -0.000001 -0.000000 -0.000007 -0.000001 -0.250492 15.091158 17.096754 -2.075203 51.817056 38.811693 -0.103354 121.578050 0.119393 -34.321868 14.351291 11.328919 -6.896640 1.280040 -10.377016 2.321131 -6.714514 -2.170933 -0.000000 -0.000006 -0.000001 -1.234563 0.594319 8.695265 0.120544 -1.119651 16.859798 0.000001 0.000001 -0.000001 -1.244957 -0.860758 12.260518 -0.066866 0.147924 10.516245 0.000000 -0.000003 0.000000 1.309156 -7.007312 16.885869 -0.155974 1.883754 13.063303 0.000000 0.000001 -0.000000 3.073295 -12.759914 12.241027 -0.732806 6.665105 22.274070 0.000000 0.000001 0.000001 0.000002 0.000001 -0.000000 -0.000000 0.000002 -0.000003 0.000002 0.000001 -0.000001 -0.000001 0.000000 0.000004 -0.000000 0.000000 0.000004 -0.000001 0.000000 0.000004 -0.000000 -0.000001 0.000004 0.000002 0.000000 0.000000 0.000002 0.000000 0.000000 0.000002 0.000000 0.000000 0.000002 0.000000 0.000000 0.000002 0.000000 0.000000 0.000002 0.000000 0.000000 0.000002 0.000000 0.000000 0.000000 0.000000 0.000000 0.000000 -0.000000 0.000000 
-0.337256 16.632256 6.769951 -91.979303 -1.581677 -0.029146 0.000000 -0.000000 -0.000000 -67.580801 7.791655 26.976298 90.195155 -3.068424 -2.971708 37.046615 12.393911 -13.046343 -0.000001 0.000002 -0.000002 0.000001 0.000001 -0.000000 -40.988669 3.691644 0.838773 46.560969 -0.512841 1.759644 57.409967 20.935293 12.773465 0.000002 -0.000001 0.000000 -0.000001 -0.000000 0.000000 4.466939 -0.473688 -2.690167 8.948201 0.090029 -1.478833 8.948192 0.090029 -1.478834 0.439153 -0.423014 -1.905934 0.439102 -0.423013 -1.905937 -0.000001 -0.000000 0.000000 0.439161 -0.423013 -1.905932 0.439140 -0.423017 -1.905930 0.000002 0.000000 -0.000000 -0.000001 -0.000000 0.000000 0.508296 -5.496882 -5.736627 43.306890 -33.788591 -19.742660 26.025994 -102.651910 29.849979 0.006547 0.322355 -1.096156 -10.116856 -3.248395 0.285374 2.321140 6.714503 2.170925 0.000002 0.000002 0.000001 -0.023982 -0.779289 -8.680753 0.068003 0.764277 -16.879061 0.000000 0.000001 -0.000000 -0.137398 0.619974 -12.274825 -0.085884 -0.354753 -10.511364 -0.000000 -0.000001 0.000000 -0.092243 7.427044 -16.709771 -0.123187 -1.634661 -13.116372 -0.000001 0.000003 -0.000000 -0.102788 13.410978 -11.521756 -0.510038 -5.458654 -22.584463 -0.000001 -0.000002 -0.000000 0.000000 0.000001 0.000003 0.000000 0.000001 0.000003 0.000000 0.000001 0.000004 0.000001 0.000002 0.000001 0.000001 0.000001 0.000002 0.000001 0.000002 0.000001 0.000001 0.000003 0.000001 -0.184136 14.822957 16.653009 -2.058661 51.568386 38.568832 -0.103781 121.472169 0.119916 -34.690906 14.954475 11.208328 -6.896639 1.280044 -10.377015 2.321128 -6.714514 -2.170928 0.000001 -0.000000 -0.000001 -1.234563 0.594320 8.695262 0.120545 -1.119647 16.859798 -0.000001 0.000003 -0.000001 -1.244957 -0.860758 12.260517 -0.066865 0.147927 10.516248 0.000002 0.000003 -0.000002 1.309155 -7.007314 16.885865 -0.155974 1.883752 13.063304 -0.000002 -0.000003 0.000000 3.073295 -12.759910 12.241025 -0.732807 6.665105 22.274068 0.000000 -0.000002 -0.000001 -0.000000 -0.000001 0.000001 -0.000003 -0.000003 0.000000 -0.000000 -0.000001 0.000001 0.000001 0.000001 -0.000001 0.000001 0.000001 0.000000 0.000001 0.000001 -0.000001 0.000001 0.000001 0.000000 0.000001 -0.000000 0.000000 0.000001 -0.000000 0.000000 0.000001 -0.000000 0.000000 0.000001 -0.000000 0.000000 0.000001 -0.000000 0.000000 0.000001 -0.000000 0.000000 0.000001 -0.000000 0.000000 -0.000000 0.000000 0.000000 0.000000 -0.000000 -0.000000 
-0.410716 16.497169 6.385719 -91.852896 -2.112174 -0.500294 0.000000 -0.000000 0.000000 -67.355316 7.409265 26.920514 89.499370 -3.110845 -2.978105 37.683745 12.790602 -13.107055 -0.000001 0.000002 0.000000 -0.000002 0.000001 -0.000000 -42.649081 2.304004 0.587746 48.914051 -0.145250 1.858286 55.480940 18.446883 10.933795 0.000001 -0.000000 -0.000000 -0.000000 0.000000 -0.000000 4.392152 -0.323408 -2.592804 8.790917 0.317708 -1.567344 8.790907 0.317707 -1.567345 0.468594 -0.432089 -1.920825 0.468614 -0.432088 -1.920825 0.000002 -0.000000 -0.000001 0.468698 -0.432091 -1.920824 0.468537 -0.432101 -1.920822 0.000001 0.000000 0.000000 0.000002 -0.000000 -0.000001 0.510000 -4.899809 -5.289723 44.228910 -34.717937 -19.289503 30.200682 -101.465206 34.712835 0.209758 -0.136768 -0.460613 -9.488254 -2.599291 0.740153 2.321139 6.714504 2.170923 0.000001 -0.000005 -0.000000 -0.023982 -0.779289 -8.680752 0.068002 0.764275 -16.879059 0.000000 0.000001 0.000000 -0.137398 0.619970 -12.274824 -0.085885 -0.354753 -10.511362 -0.000000 -0.000001 0.000000 -0.092243 7.427045 -16.709769 -0.123187 -1.634662 -13.116370 -0.000000 0.000003 0.000001 -0.102787 13.410970 -11.521758 -0.510038 -5.458656 -22.584463 -0.000000 -0.000003 0.000002 -0.000000 0.000002 -0.000000 -0.000000 0.000002 -0.000000 -0.000000 0.000002 0.000000 -0.000000 -0.000001 -0.000000 -0.000000 -0.000002 0.000000 -0.000000 -0.000001 -0.000000 0.000000 0.000000 -0.000001 -0.125456 14.538182 16.268525 -1.932843 51.365973 38.396923 -0.104299 121.355618 0.120503 -34.915336 15.533056 11.185892 -6.896638 1.280045 -10.377013 2.321131 -6.714522 -2.170927 -0.000000 -0.000006 -0.000001 -1.234561 0.594321 8.695265 0.120545 -1.119652 16.859798 -0.000001 0.000003 -0.000001 -1.244958 -0.860760 12.260516 -0.066865 0.147925 10.516248 0.000001 0.000000 -0.000004 1.309156 -7.007313 16.885869 -0.155975 1.883751 13.063299 -0.000002 -0.000001 -0.000001 3.073294 -12.759910 12.241025 -0.732810 6.665106 22.274068 0.000001 0.000002 -0.000002 -0.000001 0.000001 0.000001 -0.000002 -0.000001 0.000000 -0.000001 0.000001 -0.000000 0.000002 -0.000001 0.000000 0.000002 -0.000001 0.000002 0.000002 -0.000001 0.000000 0.000002 -0.000002 0.000002 -0.000000 0.000000 -0.000001 -0.000000 0.000000 -0.000001 -0.000000 0.000000 -0.000001 -0.000000 0.000000 -0.000001 -0.000000 0.000000 -0.000001 -0.000000 0.000000 -0.000001 -0.000000 0.000000 -0.000001 0.000000 0.000000 0.000000 0.000000 -0.000000 0.000000 
-0.425820 16.376717 6.062141 -91.674690 -2.517286 -0.881601 -0.000000 0.000000 0.000000 -67.224785 7.171520 26.747530 88.786387 -3.097510 -2.974856 38.388600 13.133417 -13.036406 -0.000003 -0.000001 0.000000 -0.000001 -0.000002 0.000001 -44.084513 0.945371 0.244117 50.771248 0.178867 1.935358 54.391989 16.015166 8.782437 0.000002 -0.000000 0.000000 -0.000001 0.000000 -0.000000 4.304662 -0.196394 -2.477679 8.610517 0.500540 -1.623384 8.610531 0.500540 -1.623387 0.484553 -0.439728 -1.944290 0.484534 -0.439728 -1.944288 0.000002 0.000000 0.000000 0.484616 -0.439726 -1.944293 0.484453 -0.439734 -1.944291 -0.000000 0.000000 -0.000000 0.000002 0.000000 0.000000 0.508848 -4.424340 -4.940237 45.302203 -35.308619 -18.765243 37.547954 -100.266754 42.772181 0.618973 -1.349850 0.313984 -8.960942 -2.094778 1.351721 2.321142 6.714503 2.170923 -0.000001 0.000001 -0.000006 -0.023981 -0.779281 -8.680751 0.068003 0.764275 -16.879061 0.000001 0.000001 0.000000 -0.137397 0.619977 -12.274822 -0.085885 -0.354757 -10.511364 0.000000 0.000000 -0.000000 -0.092246 7.427049 -16.709769 -0.123187 -1.634661 -13.116372 0.000001 -0.000002 0.000001 -0.102789 13.410975 -11.521755 -0.510037 -5.458653 -22.584464 0.000000 -0.000002 -0.000000 -0.000000 -0.000000 0.000000 -0.000000 -0.000000 0.000000 -0.000000 -0.000000 0.000000 -0.000001 -0.000005 -0.000001 -0.000001 -0.000006 -0.000001 -0.000001 -0.000005 -0.000001 -0.000001 -0.000003 -0.000001 -0.077821 14.241225 15.979823 -1.704807 51.199279 38.324017 -0.100382 121.233836 0.117301 -35.069391 16.091369 11.182976 -6.896637 1.280041 -10.377012 2.321129 -6.714518 -2.170928 0.000003 -0.000003 0.000001 -1.234561 0.594318 8.695263 0.120547 -1.119648 16.859794 -0.000000 0.000001 0.000001 -1.244958 -0.860761 12.260516 -0.066866 0.147926 10.516246 -0.000000 -0.000002 0.000000 1.309157 -7.007314 16.885869 -0.155975 1.883754 13.063306 -0.000000 -0.000001 0.000001 3.073297 -12.759914 12.241024 -0.732806 6.665103 22.274068 0.000001 -0.000004 0.000001 -0.000003 0.000001 0.000001 -0.000003 -0.000001 0.000002 -0.000003 0.000001 0.000001 0.000001 0.000001 0.000004 0.000001 0.000001 0.000002 0.000001 0.000001 0.000004 0.000001 0.000001 0.000004 -0.000000 0.000000 -0.000000 -0.000000 0.000000 -0.000000 -0.000000 0.000000 -0.000000 -0.000000 0.000000 -0.000000 -0.000000 0.000000 -0.000000 -0.000000 0.000000 -0.000000 -0.000000 0.000000 -0.000000 -0.000000 0.000000 0.000000 -0.000000 0.000000 0.000000 
